<svg width="100" height="100" viewBox="0 0 100 100" xmlns="http://www.w3.org/2000/svg">
  <defs>
    <pattern id="smallGrid" width="10" height="10" patternUnits="userSpaceOnUse">
      <path d="M 10 0 L 0 0 0 10" fill="none" stroke="#3b82f6" stroke-width="0.5" opacity="0.3"/>
    </pattern>
    <pattern id="grid" width="50" height="50" patternUnits="userSpaceOnUse">
      <rect width="50" height="50" fill="url(#smallGrid)"/>
      <path d="M 50 0 L 0 0 0 50" fill="none" stroke="#3b82f6" stroke-width="1" opacity="0.5"/>
    </pattern>
  </defs>
  
  <rect width="100" height="100" fill="url(#grid)" />
  
  <!-- Longitude/Latitude lines -->
  <path d="M 20,0 C 20,30 30,50 20,80 C 10,100 0,90 0,100" stroke="#3b82f6" stroke-width="0.7" fill="none" opacity="0.7"/>
  <path d="M 50,0 C 50,20 60,40 50,60 C 40,80 30,90 40,100" stroke="#3b82f6" stroke-width="0.7" fill="none" opacity="0.7"/>
  <path d="M 80,0 C 80,20 90,30 80,50 C 70,70 60,80 70,100" stroke="#3b82f6" stroke-width="0.7" fill="none" opacity="0.7"/>
  
  <path d="M 0,20 C 30,20 50,30 80,20 C 100,10 90,0 100,0" stroke="#3b82f6" stroke-width="0.7" fill="none" opacity="0.7"/>
  <path d="M 0,50 C 20,50 40,60 60,50 C 80,40 90,30 100,40" stroke="#3b82f6" stroke-width="0.7" fill="none" opacity="0.7"/>
  <path d="M 0,80 C 20,80 30,90 50,80 C 70,70 80,60 100,70" stroke="#3b82f6" stroke-width="0.7" fill="none" opacity="0.7"/>
</svg>

